<svg xmlns="http://www.w3.org/2000/svg" viewBox="0 0 501.7 378.7"><style>.st10,.st8{fill:#e93f79}.st10{stroke:#ae1361;stroke-miterlimit:10}</style><g id="Layer_2"><ellipse cx="249.4" cy="211.5" rx="154.4" ry="100.9"/><ellipse cx="249.4" cy="205.5" rx="154.4" ry="100.9" fill="#232047"/><radialGradient id="SVGID_1_" cx="250.845" cy="140.144" r="161.665" gradientUnits="userSpaceOnUse"><stop offset="0" stop-color="#e93f79" stop-opacity=".8"/><stop offset=".77" stop-color="#e93f79" stop-opacity=".03"/><stop offset=".8" stop-color="#e93f79" stop-opacity="0"/></radialGradient><circle cx="250.8" cy="140.1" r="142.7" fill="url(#SVGID_1_)"/><ellipse cx="250.8" cy="204.8" rx="250.8" ry="173.9" fill="none" stroke="#4f2b69" stroke-width="1.5" stroke-miterlimit="10"/><radialGradient id="SVGID_2_" cx="246.252" cy="118.715" r="114.461" gradientUnits="userSpaceOnUse"><stop offset=".724" stop-color="#232147" stop-opacity=".8"/><stop offset=".821" stop-color="#222046" stop-opacity=".519"/><stop offset=".886" stop-color="#211f44" stop-opacity=".33"/><stop offset=".942" stop-color="#1e1d3f" stop-opacity=".168"/><stop offset=".993" stop-color="#1a1a37" stop-opacity=".022"/><stop offset="1" stop-color="#191936" stop-opacity="0"/></radialGradient><circle cx="246.3" cy="118.7" r="114.5" fill="url(#SVGID_2_)"/><circle cx="246.7" cy="114.5" r="114.5" fill="#ae1361"/><path class="st8" d="M258.7 77.8c1.7-1 41.9-11.1 59.1-40.8-9.6-14.3-64.8-39.5-103-22.6 17.4 23 43.9 63.4 43.9 63.4zM325 43.2s29 28.7 26.4 74.3c-30-11.7-68.4-2.3-73.6-2-4.2-8.8-12.8-29.3-12.8-29.3 23.1-10.4 43.7-23.9 60-43zm26.6 84.7s-4.1 45.3-52 77.2c-4.3-33.6-12-59.9-17.9-80.5 23.8-4.8 47.1-4 69.9 3.3zm-62.1 81.8s-4.6-55.7-17.9-82.4c-56.9 16.3-88.6 64.5-89.9 68.1 47.5 42.6 107.8 14.3 107.8 14.3z"/><path class="st8" d="M268.3 119.5l-13.7-29.4s-45.3 16-113.4 13.7c-2.6 38.8 16 71.3 31.9 86.3 35-47.8 53.5-59.2 95.2-70.6zm-66.1-101s-15 4.6-34.2 24.8-25.4 51.2-25.4 51.2 69.1 0 106.9-12.7c-11.7-23.5-34-54.9-47.3-63.3z"/><radialGradient id="SVGID_3_" cx="99.641" cy="68.871" r="26.387" gradientUnits="userSpaceOnUse"><stop offset=".304" stop-color="#e93f79" stop-opacity=".8"/><stop offset="1" stop-color="#191936" stop-opacity="0"/></radialGradient><circle cx="99.6" cy="68.9" r="22" fill="url(#SVGID_3_)"/><path class="st10" d="M98.6 67.4c.2-.3.4-.6.5-.8-2.6-1.5-4.7-3.4-6.1-5.7-2.3 1.9-3.8 4.8-3.8 8v.5c2.7.5 5.1 1.5 7.2 2.8.6-1.6 1.3-3.2 2.2-4.8z"/><path class="st10" d="M96.5 72.2c-2.1-1.3-4.5-2.3-7.2-2.8.2 4 2.7 7.5 6.2 9 0-2 .3-4.1 1-6.2z"/><path d="M101.6 67.8c-.1 0-.1 0-.2-.1.1 0 .2.1.2.1zm2.7.9c-.1 0-.2-.1-.3-.1.1 0 .2 0 .3.1zm2.8.5c-.1 0-.3 0-.4-.1.1 0 .3.1.4.1zm-6.8-2zm2.6 1.1c-.1 0-.2-.1-.2-.1.1 0 .2 0 .2.1zm-3.8-1.7zm6.6 2.4c-.1 0-.3-.1-.4-.1.2 0 .3 0 .4.1zm2.9.3h-.4.4z" fill="none"/><path class="st10" d="M106.7 69.1c-.3 0-.7-.1-1-.2.3.1.7.2 1 .2zm3.3.3h-1.5c.6-.1 1 0 1.5 0zm-1.8-.1c-.3 0-.7-.1-1-.1.3 0 .6.1 1 .1z"/><path class="st10" d="M99.1 66.6l1.2.6h.1c.4.2.7.3 1.1.5 0 0 .1 0 .2.1.4.1.7.3 1.1.4.1 0 .2.1.2.1.3.1.7.2 1.1.3.1 0 .2.1.3.1.3.1.7.2 1 .2.1 0 .2.1.4.1.3.1.7.1 1 .2.1 0 .3 0 .4.1.3 0 .7.1 1 .1h1.9v-.5c0-3.7-1.9-6.9-4.8-8.8-2.4 1.6-4.5 3.8-6.2 6.5zm1.2.6l-1.2-.6 1.2.6z"/><path class="st10" d="M101.5 67.7c-.4-.2-.8-.3-1.1-.5.3.2.7.4 1.1.5zM93 60.8c1.4 2.3 3.5 4.3 6.1 5.7 1.7-2.7 3.8-4.9 6.1-6.5-1.6-1-3.5-1.6-5.6-1.6-2.5.1-4.8 1-6.6 2.4zm11 7.8c-.4-.1-.7-.2-1.1-.3.4.1.7.2 1.1.3zm-1.3-.4c-.4-.1-.7-.3-1.1-.4.4.1.7.3 1.1.4zm2.6.7c-.3-.1-.7-.1-1-.2.3 0 .7.1 1 .2z"/><path class="st10" d="M96.5 72.2c2.7 1.7 4.9 4 6 6.7 4.2-1.2 7.3-5 7.5-9.5-4.1 0-7.9-1-10.9-2.8-.2.3-.4.5-.5.8-.9 1.6-1.6 3.2-2.1 4.8z"/><path class="st10" d="M102.5 78.9c-1.2-2.7-3.3-5-6-6.7-.7 2.1-1 4.2-1 6.2 1.3.6 2.7.9 4.1.9 1 0 2-.2 2.9-.4z"/></g></svg>